<?xml version="1.0"?>
<svg xmlns="http://www.w3.org/2000/svg" xmlns:xlink="http://www.w3.org/1999/xlink" xmlns:svgjs="http://svgjs.com/svgjs" version="1.1" width="512" height="512" x="0" y="0" viewBox="0 0 479 480" style="enable-background:new 0 0 512 512" xml:space="preserve" class=""><g><path xmlns="http://www.w3.org/2000/svg" d="m16.5 464h32v16h16v-16h224v16h16v-16h32v16h16v-480h-16v16h-32v-16h-16v16h-224v-16h-16v16h-32v-16h-16v480h16zm288-432h32v32h-32zm0 48h32v32h-32zm0 48h32v32h-32zm0 48h32v32h-32zm0 48h32v32h-32zm0 48h32v32h-32zm0 48h32v32h-32zm0 48h32v32h-32zm0 48h32v32h-32zm-240-288v-96h224v128h-224zm0 144v-96h224v128h-224zm0 144v-96h224v128h-224zm-48-384h32v32h-32zm0 48h32v32h-32zm0 48h32v32h-32zm0 48h32v32h-32zm0 48h32v32h-32zm0 48h32v32h-32zm0 48h32v32h-32zm0 48h32v32h-32zm0 48h32v32h-32zm0 0" fill="#ffffff" data-original="#000000" style="" class=""/></g></svg>
